# File created by Blade
# Date/Time:  Tue Jan 27 18:09:18 2015
#---------------------------------------------------------
:version 1.10
:name HOM
:units
  mass 1.0
  length 1.000000
  angle deg
:documentation
     Acclaim Skeleton File
:root
   axis xyz
   order TX TY TZ RX RY RZ
   position 0.000000 0.000000 0.000000
   orientation 0 0 0
:bonedata
   begin
      id 1
      name Spine_dum
      direction 0.000000 1.000000 0.000000
      length 5.195262
      axis 0.0 0.0 0.0 xyz
   end
   begin
      id 2
      name LeftUpLeg_dum
      direction 1.000000 0.000000 0.000000
      length 3.351363
      axis 0.0 0.0 0.0 xyz
   end
   begin
      id 3
      name RightUpLeg_dum
      direction -1.000000 0.000000 0.000000
      length 3.351363
      axis 0.0 0.0 0.0 xyz
   end
   begin
      id 4
      name Spine
      direction 0.000000 1.000000 0.000000
      length 0.000000
      axis 0.0 0.0 0.0 xyz
      dof rx ry rz
   end
   begin
      id 5
      name Spine_dum1
      direction 0.000000 1.000000 0.000000
      length 15.653875
      axis 0.0 0.0 0.0 xyz
   end
   begin
      id 6
      name Spine_dum2
      direction 0.000000 1.000000 0.000000
      length 10.329768
      axis 0.0 0.0 0.0 xyz
   end
   begin
      id 7
      name Spine_dum3
      direction 0.000000 1.000000 0.000000
      length 10.329768
      axis 0.0 0.0 0.0 xyz
   end
   begin
      id 8
      name Head
      direction 0.000000 1.000000 0.000000
      length 4.527550
      axis 0.0 0.0 0.0 xyz
      dof rx ry rz
   end
   begin
      id 9
      name LeftShoulder
      direction 1.000000 0.000000 0.000000
      length 6.996006
      axis 0.0 0.0 -90.0 xyz
      dof rx ry rz
   end
   begin
      id 10
      name LeftArm
      direction 1.000000 0.000000 0.000000
      length 10.209302
      axis 0.0 0.0 -90.0 xyz
      dof rx ry rz
   end
   begin
      id 11
      name LeftForeArm
      direction 1.000000 0.000000 0.000000
      length 8.563163
      axis 0.0 0.0 -90.0 xyz
      dof ry rz rx
   end
   begin
      id 12
      name LeftHand
      direction 0.000000 0.000000 0.000000
      length 0.000000
      axis 0.0 0.0 -90.0 xyz
      dof rx ry rz
   end
   begin
      id 13
      name LeftHand_dum1
      direction 0.000000 0.000000 0.000000
      length 0.000000
      axis 0.0 0.0 -90.0 xyz
   end
   begin
      id 14
      name LeftHand_dum2
      direction 1.000000 0.000000 0.000000
      length 3.937000
      axis 0.0 0.0 -90.0 xyz
   end
   begin
      id 15
      name LeftHandThumb1
      direction 0.000000 0.000000 1.000000
      length 3.937000
      axis 0.0 0.0 -90.0 xyz
      dof rx rz ry
   end
   begin
      id 16
      name RightShoulder
      direction -1.000000 0.000000 0.000000
      length 6.996006
      axis 0.0 0.0 90.0 xyz
      dof rx ry rz
   end
   begin
      id 17
      name RightArm
      direction -1.000000 0.000000 0.000000
      length 10.209302
      axis 0.0 0.0 90.0 xyz
      dof rx ry rz
   end
   begin
      id 18
      name RightForeArm
      direction -1.000000 0.000000 0.000000
      length 8.563163
      axis 0.0 0.0 90.0 xyz
      dof ry rz rx
   end
   begin
      id 19
      name RightHand
      direction 0.000000 0.000000 0.000000
      length 0.000000
      axis 0.0 0.0 90.0 xyz
      dof rx ry rz
   end
   begin
      id 20
      name RightHand_dum1
      direction 0.000000 0.000000 0.000000
      length 0.000000
      axis 0.0 0.0 90.0 xyz
   end
   begin
      id 21
      name RightHand_dum2
      direction -1.000000 0.000000 0.000000
      length 3.937000
      axis 0.0 0.0 90.0 xyz
   end
   begin
      id 22
      name RightHandThumb1
      direction 0.000000 0.000000 1.000000
      length 3.937000
      axis 0.0 0.0 90.0 xyz
      dof rx rz ry
   end
   begin
      id 23
      name LeftUpLeg
      direction 0.000000 -1.000000 0.000000
      length 16.346831
      axis 0.0 0.0 0.0 xyz
      dof rx ry rz
   end
   begin
      id 24
      name LeftLeg
      direction 0.000000 -1.000000 0.000000
      length 13.959795
      axis 0.0 0.0 0.0 xyz
      dof rx ry rz
   end
   begin
      id 25
      name LeftFoot
      direction 0.000000 -0.258819 0.965926
      length 5.165550
      axis 15.0 0.0 0.0 xyz
      dof rx ry rz
   end
   begin
      id 26
      name LeftToeBase
      direction 0.000000 0.000000 1.000000
      length 2.952750
      axis 0.0 0.0 0.0 xyz
      dof rx ry rz
   end
   begin
      id 27
      name RightUpLeg
      direction 0.000000 -1.000000 0.000000
      length 16.346831
      axis 0.0 0.0 0.0 xyz
      dof rx ry rz
   end
   begin
      id 28
      name RightLeg
      direction 0.000000 -1.000000 0.000000
      length 13.959795
      axis 0.0 0.0 0.0 xyz
      dof rx ry rz
   end
   begin
      id 29
      name RightFoot
      direction 0.000000 -0.258819 0.965926
      length 5.165550
      axis 15.0 0.0 0.0 xyz
      dof rx ry rz
   end
   begin
      id 30
      name RightToeBase
      direction 0.000000 0.000000 1.000000
      length 2.952750
      axis 0.0 0.0 0.0 xyz
      dof rx ry rz
   end
:hierarchy
   begin
      root Spine_dum LeftUpLeg_dum RightUpLeg_dum
      Spine_dum Spine
      LeftUpLeg_dum LeftUpLeg
      RightUpLeg_dum RightUpLeg
      Spine Spine_dum1 Spine_dum2 Spine_dum3
      Spine_dum1 Head
      Spine_dum2 LeftShoulder
      Spine_dum3 RightShoulder
      LeftShoulder LeftArm
      LeftArm LeftForeArm
      LeftForeArm LeftHand
      LeftHand LeftHand_dum1 LeftHand_dum2
      LeftHand_dum1 LeftHandThumb1
      RightShoulder RightArm
      RightArm RightForeArm
      RightForeArm RightHand
      RightHand RightHand_dum1 RightHand_dum2
      RightHand_dum1 RightHandThumb1
      LeftUpLeg LeftLeg
      LeftLeg LeftFoot
      LeftFoot LeftToeBase
      RightUpLeg RightLeg
      RightLeg RightFoot
      RightFoot RightToeBase
   end

# File created by Blade
# Date/Time:  Tue Jan 27 18:09:10 2015
# Frame Rate: 120.000 fps
#------------------------------------------------------
:FULLY-SPECIFIED
:DEGREES
514
root -1.528248 31.798663 -5.787272 5.566305 21.918163 5.629229
Spine -7.711669 2.918902 -2.101892
Head 5.647851 -18.001748 5.814881
LeftShoulder -7.695038 15.938878 4.806493
LeftArm 25.921111 40.191715 -70.306452
LeftForeArm -2.310165 -0.000000 12.840677
LeftHand -10.774526 -0.000000 -4.496755
LeftHandThumb1 -26.253704 0.000000 33.147579
RightShoulder 9.179585 46.397856 -36.519375
RightArm 41.276680 8.500231 118.619544
RightForeArm 24.190628 -0.000000 111.183369
RightHand -11.172804 0.000000 -1.659171
RightHandThumb1 -24.326973 -0.000000 -32.862282
LeftUpLeg -1.679866 -9.464086 -1.407649
LeftLeg 3.049530 -0.000000 -0.000000
LeftFoot -15.441219 10.766435 -24.159596
LeftToeBase 8.462568 -0.000000 -0.000000
RightUpLeg 6.454094 -12.858044 -4.350635
RightLeg -3.768796 -0.000000 0.000000
RightFoot -18.990467 -19.827175 11.587082
RightToeBase 5.369970 -0.000000 -0.000000
515
root -1.527993 31.801322 -5.790156 5.567164 21.961252 5.639894
Spine -7.709844 3.030999 -2.101042
Head 5.616242 -17.628311 5.232091
LeftShoulder -7.695766 15.923359 4.784012
LeftArm 26.049159 40.242407 -70.211054
LeftForeArm -2.229472 -0.000000 12.796193
LeftHand -10.782899 -0.000000 -4.436565
LeftHandThumb1 -26.253704 0.000000 33.147579
RightShoulder 9.531801 46.228861 -36.110374
RightArm 41.334745 9.452850 119.148721
RightForeArm 24.979456 -0.000000 112.043076
RightHand -11.065630 -0.000000 -1.623110
RightHandThumb1 -24.326973 -0.000000 -32.862282
LeftUpLeg -1.691540 -9.491692 -1.415422
LeftLeg 3.056533 -0.000000 -0.000000
LeftFoot -15.413319 10.772158 -24.158764
LeftToeBase 8.446256 -0.000000 -0.000000
RightUpLeg 6.455996 -12.881539 -4.357847
RightLeg -3.759526 -0.000000 0.000000
RightFoot -18.982027 -19.850392 11.611733
RightToeBase 5.326106 -0.000000 -0.000000
516
root -1.535477 31.803304 -5.799215 5.598895 22.047117 5.634972
Spine -7.704960 3.113209 -2.094094
Head 5.415197 -17.212375 4.712415
LeftShoulder -7.686191 15.863296 4.768778
LeftArm 26.140413 40.264658 -70.130307
LeftForeArm -2.137872 -0.000000 12.788555
LeftHand -10.782331 0.000000 -4.409377
LeftHandThumb1 -26.253704 0.000000 33.147579
RightShoulder 9.785077 45.947679 -35.716448
RightArm 41.494319 10.311802 119.640434
RightForeArm 25.763685 -0.000000 112.980844
RightHand -10.982816 -0.000000 -1.746402
RightHandThumb1 -24.326973 -0.000000 -32.862282
LeftUpLeg -1.783740 -9.527805 -1.385353
LeftLeg 3.129502 -0.000000 -0.000000
LeftFoot -15.389793 10.693732 -24.211521
LeftToeBase 8.421067 -0.000000 -0.000000
RightUpLeg 6.405977 -12.920311 -4.319253
RightLeg -3.745325 -0.000000 0.000000
RightFoot -18.979350 -19.925793 11.589390
RightToeBase 5.369231 -0.000000 -0.000000
517
root -1.535640 31.804937 -5.803729 5.623946 22.092125 5.652568
Spine -7.707552 3.278753 -2.106051
Head 5.293969 -16.787319 3.978915
LeftShoulder -7.632820 15.826973 4.758931
LeftArm 26.201905 40.271913 -70.083330
LeftForeArm -2.000650 -0.000000 12.803216
LeftHand -10.797144 -0.000000 -4.345670
LeftHandThumb1 -26.253704 0.000000 33.147579
RightShoulder 10.075424 45.928515 -35.285639
RightArm 41.411731 11.402196 120.153386
RightForeArm 26.910571 -0.000000 114.047312
RightHand -10.950633 -0.000000 -1.902131
RightHandThumb1 -24.326973 -0.000000 -32.862282
LeftUpLeg -1.819092 -9.569318 -1.391034
LeftLeg 3.127752 -0.000000 -0.000000
LeftFoot -15.353335 10.694725 -24.197413
LeftToeBase 8.471662 -0.000000 -0.000000
RightUpLeg 6.383175 -12.925472 -4.325955
RightLeg -3.736417 -0.000000 0.000000
RightFoot -18.989736 -19.962050 11.612797
RightToeBase 5.367449 -0.000000 -0.000000
518
root -1.533923 31.805873 -5.807765 5.639384 22.159035 5.669572
Spine -7.703839 3.379222 -2.104144
Head 5.188441 -16.238239 3.306398
LeftShoulder -7.618269 15.817400 4.742491
LeftArm 26.245583 40.240071 -70.069684
LeftForeArm -1.828193 0.000000 12.842496
LeftHand -10.804291 -0.000000 -4.317774
LeftHandThumb1 -26.253704 0.000000 33.147579
RightShoulder 10.344561 45.239703 -34.872700
RightArm 41.960281 12.036396 120.630114
RightForeArm 27.785725 -0.000000 115.131306
RightHand -11.010172 -0.000000 -2.349296
RightHandThumb1 -24.326973 -0.000000 -32.862282
LeftUpLeg -1.845981 -9.641913 -1.402138
LeftLeg 3.142461 -0.000000 -0.000000
LeftFoot -15.316071 10.723132 -24.097716
LeftToeBase 8.405906 -0.000000 -0.000000
RightUpLeg 6.386143 -12.948457 -4.338249
RightLeg -3.750046 -0.000000 0.000000
RightFoot -18.978985 -19.988367 11.662321
RightToeBase 5.303167 -0.000000 -0.000000
519
root -1.532668 31.806825 -5.812337 5.656106 22.239719 5.686611
Spine -7.676821 3.493841 -2.101135
Head 4.971570 -15.755644 2.621070
LeftShoulder -7.602702 15.789761 4.716193
LeftArm 26.289838 40.228721 -70.033501
LeftForeArm -1.685825 0.000000 12.911052
LeftHand -10.790713 -0.000000 -4.271763
LeftHandThumb1 -26.253704 0.000000 33.147579
RightShoulder 10.601400 45.240654 -34.447474
RightArm 41.872242 13.076916 121.078557
RightForeArm 28.716364 -0.000000 116.292739
RightHand -10.802730 -0.000000 -2.161233
RightHandThumb1 -24.326973 -0.000000 -32.862282
LeftUpLeg -1.883157 -9.691382 -1.410030
LeftLeg 3.164952 -0.000000 -0.000000
LeftFoot -15.310638 10.676141 -24.178681
LeftToeBase 8.479242 -0.000000 -0.000000
RightUpLeg 6.384840 -13.001039 -4.348869
RightLeg -3.750454 -0.000000 0.000000
RightFoot -18.986943 -20.031632 11.616796
RightToeBase 5.387289 -0.000000 -0.000000
520
root -1.533486 31.808107 -5.817471 5.703196 22.313109 5.706209
Spine -7.681614 3.610183 -2.105863
Head 4.736381 -15.210939 1.863198
LeftShoulder -7.590413 15.778145 4.691567
LeftArm 26.337117 40.217156 -69.987487
LeftForeArm -1.544438 -0.000000 12.984499
LeftHand -10.779405 -0.000000 -4.233582
LeftHandThumb1 -26.253704 0.000000 33.147579
RightShoulder 10.826435 45.081101 -34.033609
RightArm 41.939604 14.017745 121.535013
RightForeArm 30.071472 -0.000000 117.509024
RightHand -10.336096 -0.000000 -2.449935
RightHandThumb1 -24.326973 -0.000000 -32.862282
LeftUpLeg -1.943922 -9.736737 -1.413026
LeftLeg 3.172559 -0.000000 -0.000000
LeftFoot -15.267144 10.654710 -24.175551
LeftToeBase 8.469274 -0.000000 -0.000000
RightUpLeg 6.347286 -13.037792 -4.349855
RightLeg -3.748170 -0.000000 0.000000
RightFoot -18.995022 -20.069613 11.644918
RightToeBase 5.371980 -0.000000 -0.000000
521
root -1.532485 31.809243 -5.822840 5.743318 22.393561 5.731615
Spine -7.667491 3.690906 -2.101459
Head 4.483976 -14.634937 1.096980
LeftShoulder -7.618889 15.779198 4.651470
LeftArm 26.434380 40.265693 -69.892330
LeftForeArm -1.489708 -0.000000 13.044842
LeftHand -10.754733 -0.000000 -4.203247
LeftHandThumb1 -26.253704 0.000000 33.147579
RightShoulder 11.034214 44.791292 -33.671891
RightArm 42.128369 14.828746 121.977885
RightForeArm 31.323428 -0.000000 118.770813
RightHand -9.554711 -0.000000 -2.000375
RightHandThumb1 -24.326973 -0.000000 -32.862282
LeftUpLeg -2.000759 -9.778096 -1.428636
LeftLeg 3.190150 -0.000000 -0.000000
LeftFoot -15.232176 10.634950 -24.158523
LeftToeBase 8.480060 -0.000000 -0.000000
RightUpLeg 6.327360 -13.094608 -4.363720
RightLeg -3.756983 -0.000000 0.000000
RightFoot -19.000068 -20.093510 11.651442
RightToeBase 5.431036 -0.000000 -0.000000
522
root -1.530077 31.809143 -5.826499 5.765515 22.479633 5.752140
Spine -7.633740 3.745449 -2.086441
Head 4.203117 -13.980656 0.352444
LeftShoulder -7.638841 15.769437 4.620973
LeftArm 26.485161 40.318238 -69.829645
LeftForeArm -1.463375 -0.000000 13.109334
LeftHand -10.735845 -0.000000 -4.191988
LeftHandThumb1 -26.253704 0.000000 33.147579
RightShoulder 11.217282 44.309512 -33.414513
RightArm 42.508568 15.553638 122.464956
RightForeArm 32.528936 -0.000000 120.140292
RightHand -9.111621 -0.000000 -1.659209
RightHandThumb1 -24.326973 -0.000000 -32.862282
LeftUpLeg -2.008662 -9.908961 -1.436509
LeftLeg 3.155540 -0.000000 -0.000000
LeftFoot -15.188315 10.677481 -24.096151
LeftToeBase 8.390629 -0.000000 -0.000000
RightUpLeg 6.336002 -13.158787 -4.377430
RightLeg -3.782018 -0.000000 0.000000
RightFoot -18.990481 -20.112583 11.670574
RightToeBase 5.377207 -0.000000 -0.000000
523
root -1.529014 31.810290 -5.830596 5.797666 22.574401 5.771534
Spine -7.591645 3.783697 -2.066335
Head 3.862698 -13.302292 -0.395068
LeftShoulder -7.674144 15.778017 4.569753
LeftArm 26.520092 40.305308 -69.781102
LeftForeArm -1.414996 -0.000000 13.195409
LeftHand -10.679906 0.000000 -4.189958
LeftHandThumb1 -26.253704 0.000000 33.147579
RightShoulder 11.390124 44.378075 -33.072392
RightArm 42.383154 16.451969 122.807874
RightForeArm 33.931519 -0.000000 121.506451
RightHand -8.294754 -0.000000 -1.389079
RightHandThumb1 -24.326973 -0.000000 -32.862282
LeftUpLeg -2.047580 -9.956234 -1.440924
LeftLeg 3.146079 -0.000000 -0.000000
LeftFoot -15.159145 10.619146 -24.205523
LeftToeBase 8.406500 -0.000000 -0.000000
RightUpLeg 6.344139 -13.192502 -4.383603
RightLeg -3.828810 -0.000000 0.000000
RightFoot -18.981441 -20.160688 11.689748
RightToeBase 5.418470 -0.000000 -0.000000
